<svg width="495" height="416" viewBox="0 0 495 416" fill="none" xmlns="http://www.w3.org/2000/svg">
<path d="M196.162 285.269L198.293 272.079H202.689L200.558 285.269C200.463 285.771 200.418 286.255 200.418 286.713C200.418 288.501 201.073 290.174 202.378 291.726C203.682 293.285 205.546 294.061 207.977 294.061C210.407 294.061 212.615 293.203 214.606 291.485C216.598 289.767 217.775 287.693 218.144 285.269L220.275 272.079H224.671L222.54 285.269C221.993 288.933 220.224 292.045 217.253 294.609C214.275 297.173 210.954 298.458 207.289 298.458C203.625 298.458 200.717 297.179 198.567 294.609C196.874 292.547 196.022 290.168 196.022 287.464C196.022 286.732 196.066 286 196.162 285.262V285.269Z" fill="url(#paint0_linear_2210_186)"/>
<path d="M233.471 272.079H246.66C250.325 272.079 253.302 272.926 255.593 274.624C257.559 276.139 258.545 277.901 258.545 279.912C258.545 280.23 258.519 280.554 258.475 280.872C258.061 283.303 256.439 285.37 253.595 287.088C250.757 288.806 247.506 289.665 243.841 289.665H235.049L233.674 298.458H229.278L233.471 272.079ZM237.18 276.476L235.736 285.269H244.528C246.959 285.269 249.097 284.842 250.954 283.996C252.812 283.15 253.849 282.107 254.078 280.872V280.529C254.078 279.428 253.334 278.48 251.845 277.678C250.356 276.877 248.397 276.476 245.973 276.476H237.18Z" fill="url(#paint1_linear_2210_186)"/>
<path d="M269.533 294.061H291.514L290.827 298.458H264.449L268.642 272.079H295.02L294.333 276.476H272.351L271.25 283.074H288.836L288.149 287.47H270.563L269.533 294.068V294.061Z" fill="url(#paint2_linear_2210_186)"/>
<path d="M326.005 298.458H321.608L322.296 294.061H304.71L304.023 298.458H299.626L301.688 285.269L317.008 272.079L328.066 285.269L326.005 298.458ZM322.983 289.665L323.396 287.056L316.048 278.264L305.811 287.056L305.397 289.665H322.983Z" fill="url(#paint3_linear_2210_186)"/>
<path d="M352.18 272.079H360.972L360.285 276.476H351.492C349.66 276.476 348.07 276.692 346.721 277.131C345.372 277.564 344.647 278.079 344.557 278.677V278.817C344.557 279.364 345.143 279.848 346.307 280.261C347.478 280.675 348.973 280.879 350.805 280.879C354.47 280.879 357.448 281.725 359.738 283.424C361.659 284.887 362.627 286.605 362.627 288.577C362.627 288.946 362.601 289.309 362.557 289.678C362.188 292.108 360.584 294.176 357.747 295.894C354.909 297.612 351.658 298.471 347.993 298.471H334.804L335.491 294.074H348.68C351.104 294.074 353.248 293.648 355.106 292.802C356.964 291.955 357.982 290.912 358.16 289.678C358.205 289.538 358.23 289.379 358.23 289.194C358.23 288.189 357.473 287.286 355.965 286.484C354.451 285.682 352.485 285.281 350.055 285.281C347.032 285.281 344.557 284.639 342.636 283.36C340.944 282.259 340.091 280.955 340.091 279.447C340.091 279.218 340.117 278.964 340.161 278.69C340.435 276.858 341.752 275.299 344.112 274.02C346.473 272.741 349.164 272.099 352.186 272.099L352.18 272.079Z" fill="url(#paint4_linear_2210_186)"/>
<path d="M382.891 286.159L373.684 275.165L377.26 272.073L385.779 282.17L397.46 272.073L400.069 275.165L387.293 286.159L385.372 298.458H380.976L382.897 286.159H382.891Z" fill="url(#paint5_linear_2210_186)"/>
<path d="M198.878 187.047L206.023 142.796H220.771L213.626 187.047C213.315 188.739 213.168 190.355 213.168 191.888C213.168 197.882 215.357 203.493 219.734 208.71C224.112 213.934 230.372 216.549 238.516 216.549C246.66 216.549 254.072 213.667 260.759 207.909C267.446 202.144 271.397 195.197 272.631 187.053L279.776 142.803H294.524L287.379 187.053C285.534 199.345 279.617 209.792 269.634 218.394C259.645 227.002 248.505 231.303 236.219 231.303C223.933 231.303 214.167 227.002 206.952 218.394C201.264 211.478 198.427 203.493 198.427 194.427C198.427 191.971 198.579 189.509 198.891 187.053L198.878 187.047Z" fill="url(#paint6_linear_2210_186)"/>
<path d="M327.07 216.542H400.816L398.513 231.29H310.012L324.073 142.79H412.574L410.27 157.538H336.524L332.834 179.66H391.832L389.529 194.408H330.531L327.076 216.529L327.07 216.542Z" fill="url(#paint7_linear_2210_186)"/>
<g clip-path="url(#clip0_2210_186)">
<path d="M494.34 139.396V296.862C494.34 362.339 441.072 415.607 375.595 415.607H218.129C152.832 415.607 99.6682 362.623 99.3972 297.391C99.3843 297.223 99.3843 297.043 99.3843 296.862C99.3843 291.157 104.005 286.536 109.71 286.536C115.415 286.536 120.036 291.157 120.036 296.862C120.036 350.955 164.036 394.956 218.129 394.956H375.595C429.688 394.956 473.688 350.955 473.688 296.862V139.396C473.688 85.3027 429.688 41.3026 375.595 41.3026H309.769C304.064 41.3026 299.443 36.6819 299.443 30.977C299.443 25.2721 304.064 20.6514 309.769 20.6514H375.595C441.072 20.6514 494.34 73.9187 494.34 139.396Z" fill="url(#paint8_linear_2210_186)"/>
</g>
<path d="M45.7 14.6387C44.6386 46.3585 33.6686 54.948 1.33371 53.8659C39.3273 55.1373 42.0708 69.8854 43.0055 95.158C44.0126 65.065 50.5901 57.1427 80.5543 56.517C48.3282 52.1816 44.7747 42.2918 45.7 14.6387Z" fill="white"/>
<path d="M45.7 14.6387C44.6386 46.3585 33.6686 54.948 1.33371 53.8659C39.3273 55.1373 42.0708 69.8854 43.0055 95.158C44.0126 65.065 50.5901 57.1427 80.5543 56.517C48.3282 52.1816 44.7747 42.2918 45.7 14.6387Z" fill="url(#paint9_linear_2210_186)"/>
<path d="M173.946 2.68916C171.963 61.957 151.466 78.0064 91.0485 75.9846C162.039 78.3602 167.165 105.917 168.912 153.138C170.793 96.9099 183.083 82.1072 239.071 80.9381C178.857 72.8375 172.217 54.3586 173.946 2.68916Z" fill="white"/>
<path d="M173.946 2.68916C171.963 61.957 151.466 78.0064 91.0485 75.9846C162.039 78.3602 167.165 105.917 168.912 153.138C170.793 96.9099 183.083 82.1072 239.071 80.9381C178.857 72.8375 172.217 54.3586 173.946 2.68916Z" fill="url(#paint10_linear_2210_186)"/>
<path d="M89.0177 130.542C87.4367 177.783 71.0988 190.576 22.9412 188.965C79.5264 190.858 83.6125 212.823 85.0046 250.462C86.5044 205.644 96.3005 193.845 140.927 192.913C92.9319 186.456 87.6394 171.727 89.0177 130.542Z" fill="white"/>
<path d="M89.0177 130.542C87.4367 177.783 71.0988 190.576 22.9412 188.965C79.5264 190.858 83.6125 212.823 85.0046 250.462C86.5044 205.644 96.3005 193.845 140.927 192.913C92.9319 186.456 87.6394 171.727 89.0177 130.542Z" fill="url(#paint11_linear_2210_186)"/>
<defs>
<linearGradient id="paint0_linear_2210_186" x1="210.347" y1="272.079" x2="210.347" y2="298.458" gradientUnits="userSpaceOnUse">
<stop stop-color="white"/>
<stop offset="1" stop-color="#999999"/>
</linearGradient>
<linearGradient id="paint1_linear_2210_186" x1="243.911" y1="272.079" x2="243.911" y2="298.458" gradientUnits="userSpaceOnUse">
<stop stop-color="white"/>
<stop offset="1" stop-color="#999999"/>
</linearGradient>
<linearGradient id="paint2_linear_2210_186" x1="279.735" y1="272.079" x2="279.735" y2="298.458" gradientUnits="userSpaceOnUse">
<stop stop-color="white"/>
<stop offset="1" stop-color="#999999"/>
</linearGradient>
<linearGradient id="paint3_linear_2210_186" x1="313.846" y1="272.079" x2="313.846" y2="298.458" gradientUnits="userSpaceOnUse">
<stop stop-color="white"/>
<stop offset="1" stop-color="#999999"/>
</linearGradient>
<linearGradient id="paint4_linear_2210_186" x1="348.715" y1="272.079" x2="348.715" y2="298.471" gradientUnits="userSpaceOnUse">
<stop stop-color="white"/>
<stop offset="1" stop-color="#999999"/>
</linearGradient>
<linearGradient id="paint5_linear_2210_186" x1="386.877" y1="272.073" x2="386.877" y2="298.458" gradientUnits="userSpaceOnUse">
<stop stop-color="white"/>
<stop offset="1" stop-color="#999999"/>
</linearGradient>
<linearGradient id="paint6_linear_2210_186" x1="242.599" y1="19.3762" x2="242.599" y2="243.942" gradientUnits="userSpaceOnUse">
<stop stop-color="white"/>
<stop offset="1" stop-color="#EA721C"/>
</linearGradient>
<linearGradient id="paint7_linear_2210_186" x1="357.156" y1="19.3785" x2="357.156" y2="243.928" gradientUnits="userSpaceOnUse">
<stop stop-color="white"/>
<stop offset="1" stop-color="#EA721C"/>
</linearGradient>
<linearGradient id="paint8_linear_2210_186" x1="15.4885" y1="-19.3605" x2="469.081" y2="370.316" gradientUnits="userSpaceOnUse">
<stop stop-color="white"/>
<stop offset="1" stop-color="#EA721C"/>
</linearGradient>
<linearGradient id="paint9_linear_2210_186" x1="33.4842" y1="-228.899" x2="171.334" y2="42.2194" gradientUnits="userSpaceOnUse">
<stop stop-color="white"/>
<stop offset="1" stop-color="#EA721C"/>
</linearGradient>
<linearGradient id="paint10_linear_2210_186" x1="151.121" y1="-452.357" x2="408.691" y2="54.2233" gradientUnits="userSpaceOnUse">
<stop stop-color="white"/>
<stop offset="0.711538" stop-color="#F09B5D"/>
<stop offset="1" stop-color="#EA721C"/>
</linearGradient>
<linearGradient id="paint11_linear_2210_186" x1="81.3144" y1="-188.443" x2="260.929" y2="184.127" gradientUnits="userSpaceOnUse">
<stop stop-color="white"/>
<stop offset="1" stop-color="#EA721C"/>
</linearGradient>
<clipPath id="clip0_2210_186">
<rect width="394.955" height="394.955" fill="white" transform="translate(99.3843 20.6514)"/>
</clipPath>
</defs>
</svg>
